<svg xmlns:rdf="http://www.w3.org/1999/02/22-rdf-syntax-ns#" xmlns="http://www.w3.org/2000/svg" height="370" width="370" version="1.1" xmlns:cc="http://creativecommons.org/ns#" xmlns:dc="http://purl.org/dc/elements/1.1/" viewBox="0 0 370 370">
 <title>accessible-image</title>
 <g transform="translate(20.372 -4.1683)">
  <path d="m310.73 142.38c15.53-14.797 15.786-39.037 0.574-54.142s-40.133-15.355-55.663-0.558c-12.857 12.251-15.234 30.97-7.04 45.624l-5.797 20.202 20.885-5.22c14.893 8.27 34.184 6.345 47.041-5.906m-104.27-76.97c3.811-16.255-6.647-32.437-23.359-36.144s-33.35 6.465-37.16 22.72c-3.156 13.46 3.476 26.86 15.335 33.18l5.014 15.803 11.562-12.126c13.503-0.694 25.453-9.973 28.608-23.432m-168.34-5.405c-22.97 11.901-31.673 39.661-19.437 62.004 10.131 18.498 31.437 27.47 51.506 23.259l21.903 13.29 0.882-25.095c14.79-13.85 19.024-36.055 8.893-54.553-12.236-22.344-40.776-30.808-63.747-18.906" fill="#c83737"/>
  <path d="m122.65 156.85c-19.752 0-35.914 15.719-35.914 34.932v101.53h0.001c19.752 0 35.913-15.719 35.913-34.932v-101.53z" fill="#4c241c"/>
  <path d="m165.79 243.38c-33.111 0-60.202-26.35-60.202-58.557v-14.822c0-32.207 27.09-58.557 60.202-58.557 33.11 0 60.202 26.35 60.202 58.557v14.822c0 32.207-27.091 58.557-60.202 58.557" fill="#4c241c"/>
  <path d="m92.639 355.3v-17.611c0-39.661 33.055-71.813 73.83-71.813 40.777 0 73.832 32.152 73.832 71.813v17.612" fill="#0f446b"/>
  <path d="m193.01 281.35-26.576 59.134-26.576-59.134h53.152z" fill="#fff"/>
  <path d="m205.19 309.26v-29.548c0-20.818-17.351-37.695-38.754-37.695-21.404 0-38.754 16.877-38.754 37.695v29.548l38.754-15.503 38.754 15.503z" fill="#fff"/>
  <path d="m231.51 204.39c0 6.65-5.541 12.04-12.377 12.04-6.835 0-12.377-5.39-12.377-12.04 0-6.648 5.542-12.038 12.377-12.038 6.836 0 12.377 5.39 12.377 12.039m-46.617 77.464-18.312 39.3-18.312-39.3h36.624zm-58.71-77.46c0 6.65-5.54 12.04-12.377 12.04-6.835 0-12.377-5.39-12.377-12.04 0-6.648 5.542-12.038 12.377-12.038 6.836 0 12.377 5.39 12.377 12.039" fill="#b25c4b"/>
  <path d="m166.6 293.12c-11.233 0-20.34-8.857-20.34-19.784v-23.722c0-10.927 9.107-19.784 20.34-19.784s20.34 8.857 20.34 19.784v23.722c0 10.927-9.107 19.784-20.34 19.784" fill="#b25c4b"/>
  <path d="m166.5 266.31c-29.174 0-52.825-23.004-52.825-51.381v-31.937c0-28.377 23.651-51.381 52.825-51.381s52.825 23.004 52.825 51.38v31.938c0 28.377-23.651 51.381-52.825 51.381" fill="#bf7358"/>
  <path d="m145.92 190.89c0 3.562-2.968 6.45-6.63 6.45s-6.63-2.888-6.63-6.45 2.968-6.448 6.63-6.448 6.63 2.886 6.63 6.448m54.273 0c0 3.562-2.968 6.45-6.63 6.45s-6.63-2.888-6.63-6.45 2.968-6.448 6.63-6.448 6.63 2.886 6.63 6.448" fill="#a85f48"/>
  <path d="m175.31 207.81h-17.626v-23.421h17.626v23.42z" fill="#b25c4b"/>
  <path d="m193.89 215.66c0 14.699-12.25 26.613-27.36 26.613-15.111 0-27.36-11.914-27.36-26.612" fill="#933634"/>
  <path d="m140.62 224.16h51.823a25.878 25.878 0 0 0 1.45 -8.494h-54.722c0 2.974 0.524 5.824 1.45 8.494" fill="#fff"/>
  <path d="m182.47 237.26c-3.727-4.527-9.448-7.433-15.875-7.433-6.456 0-12.198 2.935-15.924 7.497a27.721 27.721 0 0 0 15.855 4.951 27.716 27.716 0 0 0 15.944 -5.015" fill="#af3f3f"/>
 </g>
</svg>
