<?xml version="1.0" encoding="UTF-8" standalone="no"?>
<!-- Created with Inkscape (http://www.inkscape.org/) -->
<svg id="svg2" xmlns:rdf="http://www.w3.org/1999/02/22-rdf-syntax-ns#" xmlns="http://www.w3.org/2000/svg" xml:space="preserve" height="1250" viewBox="0 0 1187.5 1250" width="1187.5" version="1.1" xmlns:cc="http://creativecommons.org/ns#" xmlns:dc="http://purl.org/dc/elements/1.1/"><metadata id="metadata8"><rdf:RDF><cc:Work rdf:about=""><dc:format>image/svg+xml</dc:format><dc:type rdf:resource="http://purl.org/dc/dcmitype/StillImage"/><dc:title/></cc:Work></rdf:RDF></metadata><g id="g10" transform="matrix(1.25,0,0,-1.25,0,1250)"><g id="g12" transform="scale(.1)"><path id="path14" d="m7099.5 7930.3h-6016.2c-184.09 0-333.3-149.2-333.3-333.2v-6262.3c0-184.05 149.21-333.27 333.28-333.27h6016.2c184.08 0 333.27 149.22 333.27 333.27v6262.3c0 184.05-149.19 333.28-333.27 333.28" fill="#f2554f"/><path id="path16" d="m6899.5 7351.9v-5592.5c0-124.4-100.4-224.8-223.91-224.8h-4029.6l-1363 1363v4454.3c0 124.38 100.4 224.79 224.79 224.79h5167.8c123.51 0 223.91-100.41 223.91-224.79" fill="#f5f5f5"/><path id="path18" d="m4091.6 8130.7c-167.09 0-302.53 135.45-302.53 302.53 0 167.09 135.44 302.53 302.53 302.53 167.07 0 302.53-135.44 302.53-302.53 0-167.08-135.46-302.53-302.53-302.53m1508.6 302.53h-943.27c0 312.21-253.11 565.32-565.32 565.32-312.23 0-565.32-253.11-565.32-565.32h-943.27c-138.97 0-251.62-112.66-251.62-251.62v-1100.1h3520.4v1100.1c0 138.96-112.65 251.62-251.62 251.62" fill="#3d5369"/><path id="path20" d="m2331.4 8003.9v177.7c0 137.9 110.92 249.88 248.39 251.62-137.47-1.74-248.37-113.72-248.37-251.6v-175.09c-0.01-0.87-0.02-1.76-0.02-2.63" fill="#95a1ac"/><path id="path22" d="m5851.8 8003.9c0 138.96-112.67 251.62-251.62 251.62h-943.27c0 312.21-253.11 565.32-565.32 565.32-312.23 0-565.32-253.11-565.32-565.32h-943.27c-138.1 0-250.22-111.24-251.62-248.99v175.09c0 137.88 110.9 249.86 248.37 251.6 1.08 0.01 2.17 0.02 3.25 0.02h943.27c0 312.2 253.09 565.32 565.32 565.32 312.21 0 565.32-253.12 565.32-565.32h943.27c138.95 0 251.62-112.66 251.62-251.64v-177.7" fill="#374b61"/><path id="path24" d="m2479 2897.9h-1195.9l1363.2-1363.2v1195.9c0 92.41-74.92 167.33-167.33 167.33" fill="#6cccb2"/><path id="path26" d="m1761.9 6266.1h2027.1v320.81h-2027.1v-320.81z" fill="#fbcd40"/><g fill="#95dcf8"><path id="path28" d="m1761.9 5255.9h4724.2v320.81h-4724.2v-320.81z"/><path id="path30" d="m1761.9 4245.7h4089.9v320.81h-4089.9v-320.81z"/><path id="path32" d="m1761.9 3235.6h4054.3v320.81h-4054.3v-320.81z"/></g><path id="path34" d="m8631 6469.5-612.33 612.31c-158.59 158.61-415.86 158.59-573.55 0.91l-3397.4-3397.3-156.82-905.71-90.75-527.74 527.74 90.73 906.59 155.96 3397.3 3397.3c157.71 157.7 157.73 414.97-0.86 573.56" fill="#aab0b7"/><path id="path36" d="m8418.6 5682.7-1028.3-1028.3-1186.7 1186.8 1028.2 1028.3 1186.8-1186.8" fill="#d0d7e1"/><path id="path38" d="m5903.7 3167.8-654.7-654.7-1186.7 1186.8 654.6 654.7 1186.8-1186.8" fill="#d0d7e1"/><path id="path40" d="m7516.7 6584.6-189.5-189.4 197.4-197.4-1114.2-1114.2c-56.42-0.22-112.78-21.76-155.84-64.82-86.54-86.53-86.54-226.84 0-313.38 86.53-86.55 226.84-86.55 313.38 0 43.04 43.04 64.6 99.42 64.82 155.84l1114.2 1114.2 197.35-197.34 189.45 189.45-617.08 617.07" fill="#fff"/><path id="path42" d="m4327.9 2342.7-527.74-90.73 90.75 527.74 436.99-437.01" fill="#31445b"/></g></g></svg>
