<svg xmlns:rdf="http://www.w3.org/1999/02/22-rdf-syntax-ns#" xmlns="http://www.w3.org/2000/svg" xml:space="preserve" height="613.73" viewBox="0 0 1152.6587 613.73248" width="1152.7" version="1.1" xmlns:cc="http://creativecommons.org/ns#" xmlns:dc="http://purl.org/dc/elements/1.1/"><g transform="matrix(1.25 0 0 -1.25 -97.341 703.73)"><path d="m473.42 341.38 526.58 221.61v-490.99l-526.58 200.43v68.95" fill="#f5ba17"/><path d="m422.41 156.55c0-8.257-62.066-14.95-138.63-14.95-76.56 0-138.63 6.693-138.63 14.95 0 8.258 62.066 14.952 138.63 14.952 76.562 0 138.63-6.694 138.63-14.952" fill="#a2a997"/><path d="m213.9 157.59h-14.196v51.371l24.975-3.889-10.779-47.482" fill="#3b3a33"/><path d="m360.37 157.59h14.196v51.37l-24.976-3.888 10.78-47.482" fill="#3b3a33"/><g fill="#413930"><path d="m132.13 460.06c-0.282 0-0.568 0.07-0.832 0.216-0.832 0.461-1.136 1.505-0.676 2.339 1.549 2.811 8.524 4.552 10.624 5.02l0.838-0.023c38.591-10.771 169.61 28.991 240 50.353 11.716 3.555 21.834 6.626 29.906 8.979 11.755 3.429 18.989 4.006 20.484 3.745 0.939-0.164 1.565-1.058 1.401-1.997-0.165-0.936-1.053-1.56-1.992-1.402-0.69 0.101-7.023-0.186-18.928-3.657-8.054-2.349-18.163-5.417-29.869-8.97-66.517-20.186-172.42-52.321-223.96-52.323-6.897 0-12.821 0.576-17.548 1.833-3.751-0.883-7.473-2.384-7.94-3.224-0.316-0.567-0.906-0.889-1.513-0.889"/><path d="m432.18 520.52c-23.777 0-43.122-19.345-43.122-43.122 0-23.778 19.345-43.122 43.122-43.122 23.779 0 43.124 19.344 43.124 43.122 0 23.777-19.345 43.122-43.124 43.122zm0-89.694c-25.68 0-46.572 20.892-46.572 46.572s20.892 46.572 46.572 46.572c25.681 0 46.574-20.892 46.574-46.572s-20.893-46.572-46.574-46.572"/><path d="m431.74 527.27c-27.617 0-50.085-22.469-50.085-50.086 0-27.618 22.468-50.086 50.085-50.086 27.618 0 50.087 22.468 50.087 50.086 0 27.617-22.469 50.086-50.087 50.086zm0-103.62c-29.52 0-53.535 24.016-53.535 53.536 0 29.519 24.015 53.537 53.535 53.537 29.521 0 53.537-24.018 53.537-53.537 0-29.52-24.016-53.536-53.537-53.536"/><path d="m431.51 513.65c-20.257 0-36.739-16.481-36.739-36.739s16.482-36.739 36.739-36.739c20.258 0 36.739 16.481 36.739 36.739s-16.481 36.739-36.739 36.739zm0-76.928c-22.16 0-40.189 18.029-40.189 40.189s18.029 40.19 40.189 40.19 40.189-18.03 40.189-40.19-18.029-40.189-40.189-40.189"/></g><g fill="#575751"><path d="m452.87 503.63-4.775 3.92 31.497 38.381 4.78-3.919-31.502-38.382"/><path d="m386.24 416.19-4.775 3.917 29.576 36.04 4.778-3.921-29.579-36.036"/><path d="m413.06 507.09-4.851-3.823-30.722 38.969 4.853 3.826 30.72-38.972"/><path d="m484.1 417.09-4.853-3.826-28.863 36.613 4.854 3.827 28.862-36.614"/><path d="m465.44 474.25 0.016 6.179 46.623-0.125-0.017-6.181-46.622 0.127"/><path d="m348.01 474.31 0.017 6.178 46.622-0.124-0.018-6.181-46.621 0.127"/></g><path d="m468.37 476.91c0-20.359-16.504-36.864-36.864-36.864-20.359 0-36.864 16.505-36.864 36.864s16.505 36.864 36.864 36.864c20.36 0 36.864-16.505 36.864-36.864" fill="#969384"/><path d="m430.89 551.48c-39.477 0-71.593-32.116-71.593-71.592s32.116-71.592 71.593-71.592c39.475 0 71.591 32.116 71.591 71.592s-32.116 71.592-71.591 71.592zm0-154.68c-45.819 0-83.093 37.276-83.093 83.093s37.274 83.093 83.093 83.093c45.817 0 83.093-37.276 83.093-83.093s-37.276-83.093-83.093-83.093" fill="#969384"/><g fill="#575751"><path d="m451.53 491.29c0-3.639-2.949-6.588-6.588-6.588-3.637 0-6.586 2.949-6.586 6.588 0 3.637 2.949 6.587 6.586 6.587 3.639 0 6.588-2.95 6.588-6.587"/><path d="m422.41 491.11c0-3.638-2.95-6.587-6.588-6.587-3.637 0-6.586 2.949-6.586 6.587 0 3.637 2.949 6.588 6.586 6.588 3.638 0 6.588-2.951 6.588-6.588"/><path d="m451.19 460.47c0-3.637-2.949-6.586-6.587-6.586s-6.587 2.949-6.587 6.586c0 3.638 2.949 6.589 6.587 6.589s6.587-2.951 6.587-6.589"/><path d="m422.41 460.47c0-3.637-2.949-6.586-6.587-6.586s-6.587 2.949-6.587 6.586c0 3.638 2.949 6.589 6.587 6.589s6.587-2.951 6.587-6.589"/><path d="m435.08 475.7c0-2.315-1.877-4.192-4.192-4.192-2.314 0-4.191 1.877-4.191 4.192 0 2.314 1.877 4.191 4.191 4.191 2.315 0 4.192-1.877 4.192-4.191"/><path d="m162.96 460.44-3.799 3.119 24.736 30.14 3.799-3.119-24.736-30.14"/><path d="m105.05 389.57-3.799 3.117 23.529 28.671 3.801-3.119-23.531-28.669"/><path d="m135.54 464.62-3.86-3.042-24.441 31.005 3.861 3.043 24.44-31.006"/><path d="m192.05 392.11-3.86-3.043-22.962 29.128 3.862 3.043 22.96-29.128"/><path d="m172.63 436.67 0.014 4.915 37.09-0.098-0.014-4.917-37.09 0.1"/><path d="m79.214 436.72 0.0132 4.914 37.568-0.099-0.013-4.917-37.568 0.102"/></g><path d="m174.97 438.79c0-16.196-13.13-29.328-29.326-29.328s-29.327 13.132-29.327 29.328 13.131 29.327 29.327 29.327 29.326-13.131 29.326-29.327" fill="#413930"/><path d="m169.27 439.12c0-12.945-10.496-23.441-23.442-23.441s-23.44 10.496-23.44 23.441c0 12.947 10.494 23.441 23.44 23.441s23.442-10.494 23.442-23.441" fill="#575751"/><path d="m145.15 496.94c-30.756 0-55.778-25.022-55.778-55.779s25.022-55.779 55.778-55.779c30.757 0 55.779 25.022 55.779 55.779s-25.022 55.779-55.779 55.779zm0-123.06c-37.098 0-67.279 30.181-67.279 67.279s30.181 67.279 67.279 67.279 67.28-30.181 67.28-67.279-30.182-67.279-67.28-67.279" fill="#969384"/><path d="m412.22 324.8h18.977v-37.377h-33.352l14.375 37.377" fill="#3b3a33"/><path d="m149.75 407.16h282.59l-49.289-202.08h-197.16l-36.144 202.08" fill="#e7393e"/><path d="m189.18 331.58h64.075v-105.15h-47.647l-16.428 105.15" fill="#3b3a33"/><path d="m242.55 304.8c0-9.872-8.003-17.874-17.874-17.874-9.872 0-17.874 8.002-17.874 17.874s8.002 17.874 17.874 17.874c9.871 0 17.874-8.002 17.874-17.874" fill="#bdd6d2"/><path d="m237.95 304.95c0.084-7.33-5.791-13.341-13.121-13.424-7.33-0.084-13.341 5.79-13.424 13.122-0.085 7.331 5.79 13.34 13.12 13.423 7.331 0.085 13.341-5.79 13.425-13.121" fill="#504f49"/><path d="m235.45 304.92c0.068-5.954-4.703-10.833-10.655-10.9-5.953-0.07-10.835 4.7-10.902 10.654-0.069 5.954 4.703 10.834 10.655 10.902 5.953 0.069 10.834-4.701 10.902-10.656" fill="#465e6a"/><path d="m235.45 272.45c0-4.87-3.948-8.817-8.818-8.817-4.869 0-8.817 3.947-8.817 8.817 0 4.869 3.948 8.817 8.817 8.817 4.87 0 8.818-3.948 8.818-8.817" fill="#be9a54"/><path d="m235.45 249.06c0-4.869-3.948-8.817-8.818-8.817-4.869 0-8.817 3.948-8.817 8.817 0 4.87 3.948 8.818 8.817 8.818 4.87 0 8.818-3.948 8.818-8.818" fill="#be9a54"/><g fill="#c13234"><path d="m340.48 391.18c0-0.763-0.346-1.382-0.772-1.382h-176.8c-0.426 0-0.773 0.619-0.773 1.382 0 0.76 0.347 1.38 0.773 1.38h176.8c0.426 0 0.772-0.62 0.772-1.38"/><path d="m307.04 380.69c0-0.628-0.28-1.131-0.627-1.131h-143.65c-0.346 0-0.628 0.503-0.628 1.131 0 0.623 0.282 1.131 0.628 1.131h143.65c0.347 0 0.627-0.508 0.627-1.131"/><path d="m283.55 369.33c0-0.695-0.235-1.254-0.525-1.254h-120.36c-0.29 0-0.526 0.559-0.526 1.254 0 0.691 0.236 1.255 0.526 1.255h120.36c0.29 0 0.525-0.564 0.525-1.255"/><path d="m264.1 357.12c0-0.632-0.198-1.138-0.442-1.138h-101.09c-0.243 0-0.442 0.506-0.442 1.138 0 0.629 0.199 1.142 0.442 1.142h101.09c0.244 0 0.442-0.513 0.442-1.142"/></g><path d="m430.04 281.58h13.801v49.069h-13.801v-49.069z" fill="#4d4d45"/><path d="m441.54 333.74s5.75 10.35 11.5 10.35h17.251v-74.372h-16.484s-11.883 2.301-12.267 8.819v55.203" fill="#66665d"/><path d="m473.42 272.43c0-1.496-1.215-2.711-2.711-2.711-1.498 0-2.713 1.215-2.713 2.711v68.95c0 1.497 1.215 2.711 2.713 2.711 1.496 0 2.711-1.214 2.711-2.711v-68.95" fill="#969384"/><path d="m356.49 224.87c0-3.281-2.074-5.942-4.632-5.942h-31.374c-2.558 0-4.631 2.661-4.631 5.942s2.073 5.942 4.631 5.942h31.374c2.558 0 4.632-2.661 4.632-5.942" fill="#3b3a33"/><path d="m355.34 224.87c0-3.07-2.488-5.558-5.559-5.558h-3.066c-3.07 0-5.559 2.488-5.559 5.558s2.489 5.559 5.559 5.559h3.066c3.071 0 5.559-2.489 5.559-5.559" fill="#be9a54"/><path d="m354.62 237.64c0-2.166-1.758-3.925-3.926-3.925s-3.925 1.759-3.925 3.925c0 2.168 1.757 3.925 3.925 3.925s3.926-1.757 3.926-3.925" fill="#b23434"/><path d="m329.03 237.64c0-2.166-1.757-3.925-3.926-3.925-2.168 0-3.925 1.759-3.925 3.925 0 2.168 1.757 3.925 3.925 3.925 2.169 0 3.926-1.757 3.926-3.925" fill="#c4dbd6"/></g></svg>
