<svg xmlns:rdf="http://www.w3.org/1999/02/22-rdf-syntax-ns#" xmlns="http://www.w3.org/2000/svg" height="28.42mm" width="28.392mm" version="1.1" xmlns:cc="http://creativecommons.org/ns#" xmlns:dc="http://purl.org/dc/elements/1.1/" viewBox="0 0 100.6 100.7">
 <g transform="translate(-398.07 -177.45)">
  <circle cy="227.75" cx="448.37" r="50.3" fill="#88c11a"/>
  <path fill="#ffb094" d="m423.17 268.55c0.5-1 1.5-1.8 2.9-1.6 4.1 0.5 7.4 3.1 10.9 5h4.5c0.5-1.5 1.5-2.7 3.3-3.1 1.9-0.4 3.9-0.1 5.8 0.50001 3.4-1.6 7.4-2.5 10.7-2.4 0.5 0 0.9 0.2 1.4 0.4 0.5 0.1 1.1 0.2 1.6 0.3 2.3-0.7 4.7-1.2 7.1-1.3 0.5 0 1 0.1 1.4 0.3 0.5-0.6 1.2-0.9 2-1v-45.9c0-14.4-11.8-26.2-26.2-26.2s-26.2 11.8-26.2 26.2v48c0.2 0.3 0.5 0.5 0.8 0.8z"/>
  <path fill="#fff" d="m398.77 236.25 0.9 0.9c1 1 1.2 2.1 0.9 3.1 3.7 9.3 9.3 17.3 16.3 24.2 2.8 1.9 5.4 4 8.1 6.1 1 0.4 2.1 0.8 3.1 1.1 0.3 0 0.6 0 0.9 0.1 14.5 2.8 29-0.9 41.7-8.2 9.2-5.3 21.9-13.1 23.8-24.5 0.3-2 2.3-2.7 4-2.4 0.1-0.7 0.1-1.4 0.2-2.2h-18.3l-32.4 10.2-32.4-10.2h-17.5c0 0.5 0.1 0.9 0.1 1.4 0.2 0 0.4 0.2 0.6 0.4z"/>
  <path fill="#0af" d="m498.17 234.75-50.2 15.6-49.5-15.7c3.3 24.6 24.4 43.5 49.9 43.5 25.4-0.1 46.4-18.9 49.8-43.4z"/>
  <path opacity="0.19" d="m448.37 278.05c25.4 0 46.5-18.9 49.9-43.4l-50.2 15.6v27.7c0 0.1 0.1 0.1 0.3 0.1z"/>
  <path fill="#88c11a" d="m475.47 255.75c-2.6 2.1-6.5 1.6-8.5-1s-1.6-6.5 1-8.5"/>
  <path fill="#774335" d="m475.47 249.95h2.1v8.4h-2.1z"/>
  <circle cy="191.95" cx="448.17" r="11" fill="#934928"/>
  <path fill="#ad582d" d="m448.47 191.25c-14.9 0-27.1 11.6-28.3 26.1h0.4c11.3 0 21.3-5.5 27.6-13.9 6.3 8.4 16.3 13.9 27.6 13.9h1c-1.2-14.5-13.5-26.1-28.3-26.1z"/>
  <path fill="#cc2f2f" d="m476.17 255.85c-3.8 0-17.9-6.5-16 10.7 0.4 3.4 1.6 6.6 3.4 9.2 10.9-3.4 20.1-10.4 26.4-19.7-3.9-3.1-11.2-0.2-13.8-0.2z"/>
  <g fill="#fff">
   <circle opacity=".7" cy="261.75" cx="467.37" r="3"/>
   <circle opacity="0.28" cy="226.45" cx="460.07" r="8.2"/>
   <circle opacity="0.28" cy="226.45" cx="435.87" r="8.2"/>
   <path opacity="0.39" d="m435.87 218.25c-4.5 0-8.2 3.7-8.2 8.2 0 2.4 1 4.5 2.6 6l11.5-11.5c-1.4-1.7-3.6-2.7-5.9-2.7zm24.2 0c-4.5 0-8.2 3.7-8.2 8.2 0 2.4 1 4.5 2.6 6l11.5-11.5c-1.4-1.7-3.5-2.7-5.9-2.7z"/>
  </g>
  <path fill="#7f3f22" d="m474.67 225.45h-5.3c-0.5-4.7-4.5-8.4-9.4-8.4-4.3 0-8 3-9.1 7-0.8-0.7-1.8-1.1-3-1.1-1.1 0-2.2 0.4-3 1.1-1.1-4-4.7-7-9.1-7-4.9 0-8.9 3.7-9.4 8.4h-4.4v1.9h4.4c0.5 4.7 4.5 8.5 9.4 8.5 4.8 0 8.8-3.7 9.3-8.4 0-1.5 1.2-2.7 2.7-2.7s2.7 1.2 2.7 2.7c0.5 4.7 4.5 8.4 9.3 8.4 4.9 0 8.9-3.7 9.4-8.5h5.3v-1.9h0.2zm-38.7 8.5c-4.1 0-7.5-3.4-7.5-7.5s3.4-7.5 7.5-7.5 7.5 3.4 7.5 7.5v0.8c-0.5 3.7-3.7 6.7-7.5 6.7zm24 0c-3.9 0-7.1-2.9-7.5-6.7v-0.8c0-4.1 3.4-7.5 7.5-7.5s7.5 3.4 7.5 7.5-3.3 7.5-7.5 7.5z"/>
 </g>
</svg>
