<svg xmlns:rdf="http://www.w3.org/1999/02/22-rdf-syntax-ns#" xmlns="http://www.w3.org/2000/svg" height="90" width="90" version="1.1" xmlns:cc="http://creativecommons.org/ns#" xmlns:dc="http://purl.org/dc/elements/1.1/">
 <g transform="translate(-448.45 -157.11)">
  <title>Layer 1</title>
  <path d="m503.61 192.08a4.157 4.157 0 0 1 5.806 -0.92799l15.799 11.446a4.1576 4.1576 0 1 1 -4.878 6.734l-15.8-11.44a4.158 4.158 0 0 1 -0.92801 -5.806zm-23.94 30.26a3.762 3.762 0 0 1 -0.81799 -5.257l12.478-17.075a3.762 3.762 0 1 1 6.075 4.439l-12.478 17.075a3.761 3.761 0 0 1 -5.25 0.82zm24.641 24.128a3.762 3.762 0 0 1 -3.762 -3.762v-21.147a3.762 3.762 0 1 1 7.524 0v21.148a3.761 3.761 0 0 1 -3.762 3.761z" fill="#c17b4c"/>
  <path d="m461.46 204.48a3.762 3.762 0 0 1 5.257 -0.81801l17.075 12.478a3.762 3.762 0 1 1 -4.439 6.075l-17.075-12.478a3.761 3.761 0 0 1 -0.82 -5.26zm48.781-24.623 6.164 4.273-5.086 7.337-6.164-4.273 5.086-7.337z" fill="#c17b4c"/>
  <path d="m519.57 247.11a5.455 5.455 0 0 0 -5.455 -5.455l-13.588-0.019v5.447l-0.003 0.027h19.046z" fill="#800000"/>
  <path d="m495.92 223.58 16.07-23.86a8.844 8.844 0 0 0 -14.476 -10.16l-16.18 23.07" fill="#ffd833"/>
  <path d="m521.12 209.4a3.366 3.366 0 0 1 -0.62799 -4.719l5.771-8.716a3.3662 3.3662 0 1 1 5.347 4.091l-5.771 8.716a3.365 3.365 0 0 1 -4.719 0.62799zm-43.941-15.961a3.366 3.366 0 0 1 -0.63 -4.72l5.771-8.716a3.367 3.367 0 1 1 5.348 4.091l-5.771 8.716a3.367 3.367 0 0 1 -4.72 0.62799z" fill="#c17b4c"/>
  <path d="m452.45 216.93a5.455 5.455 0 0 0 7.589 -1.385l7.742-11.166-4.48-3.097c-0.008-0.005-0.013-0.012-0.021-0.018l-10.83 15.666z" fill="#800000"/>
  <path d="m481.91 180.6a3.762 3.762 0 0 1 5.127 -1.421l18.405 10.416a3.762 3.762 0 0 1 -3.706 6.548l-18.4-10.43a3.76 3.76 0 0 1 -1.421 -5.127z" fill="#c17b4c"/>
  <path d="m486.72 204.69 19.505 13.361-6.213 9.07-19.506-13.36 6.214-9.071z" fill="#fff"/>
  <path d="m506.5 168.75a7.685 7.685 0 0 1 -13.461 -7.417" fill="#915126"/>
  <path d="m523.1 176.74 6.475 4.53a13.237 13.237 0 0 0 2.307 -7.483c0-7.346-5.955-13.301-13.301-13.301s-13.301 5.955-13.301 13.301 5.955 13.301 13.301 13.301c2.046 0 3.977-0.476 5.709-1.301a6.76 6.76 0 0 1 -1.19 -9.047z" fill="#c17b4c"/>
  <path d="m486.71 204.73-6.178 9.02 8.696 5.956c-4.641-3.535-5.784-10.098-2.458-14.974a0.722 0.722 0 0 1 -0.06 -0.002z" fill="#cecece"/>
  <path d="m524.91 173.12a1.91 1.91 0 0 1 3.319 1.885" fill="#fff"/>
  <path d="m516.9 168.08a5.907 5.907 0 0 1 8.103 -2.029l6.274 3.762c-1.689-5.407-6.734-9.331-12.697-9.331-7.346 0-13.301 5.955-13.301 13.301 0 3.243 1.164 6.213 3.093 8.521l8.528-14.224z" fill="#915126"/>
  <circle cy="172.76" cx="513.73" r="3.445" fill="#c17b4c"/>
 </g>
</svg>
